<svg width="690" height="98" viewBox="0 0 690 98" fill="none" xmlns="http://www.w3.org/2000/svg">
<path d="M17.68 60.5H37.39V74H0.0400002V10.55H17.68V60.5ZM89.339 48.17C89.339 49.55 89.249 50.93 89.069 52.31H55.679C55.859 55.07 56.609 57.14 57.929 58.52C59.309 59.84 61.049 60.5 63.149 60.5C66.089 60.5 68.189 59.18 69.449 56.54H88.259C87.479 60.02 85.949 63.14 83.669 65.9C81.449 68.6 78.629 70.73 75.209 72.29C71.789 73.85 68.009 74.63 63.869 74.63C58.889 74.63 54.449 73.58 50.549 71.48C46.709 69.38 43.679 66.38 41.459 62.48C39.299 58.58 38.219 53.99 38.219 48.71C38.219 43.43 39.299 38.87 41.459 35.03C43.619 31.13 46.619 28.13 50.459 26.03C54.359 23.93 58.829 22.88 63.869 22.88C68.849 22.88 73.259 23.9 77.099 25.94C80.939 27.98 83.939 30.92 86.099 34.76C88.259 38.54 89.339 43.01 89.339 48.17ZM71.339 43.76C71.339 41.6 70.619 39.92 69.179 38.72C67.739 37.46 65.939 36.83 63.779 36.83C61.619 36.83 59.849 37.43 58.469 38.63C57.089 39.77 56.189 41.48 55.769 43.76H71.339ZM90.528 48.71C90.528 43.49 91.458 38.93 93.318 35.03C95.238 31.13 97.818 28.13 101.058 26.03C104.358 23.93 108.018 22.88 112.038 22.88C115.518 22.88 118.518 23.57 121.038 24.95C123.558 26.33 125.508 28.19 126.888 30.53V23.51H144.528V74H126.888V66.98C125.508 69.32 123.528 71.18 120.948 72.56C118.428 73.94 115.458 74.63 112.038 74.63C108.018 74.63 104.358 73.58 101.058 71.48C97.818 69.38 95.238 66.38 93.318 62.48C91.458 58.52 90.528 53.93 90.528 48.71ZM126.888 48.71C126.888 45.47 125.988 42.92 124.188 41.06C122.448 39.2 120.288 38.27 117.708 38.27C115.068 38.27 112.878 39.2 111.138 41.06C109.398 42.86 108.528 45.41 108.528 48.71C108.528 51.95 109.398 54.53 111.138 56.45C112.878 58.31 115.068 59.24 117.708 59.24C120.288 59.24 122.448 58.31 124.188 56.45C125.988 54.59 126.888 52.01 126.888 48.71ZM169.07 32.42C171.05 29.54 173.45 27.26 176.27 25.58C179.09 23.9 182.12 23.06 185.36 23.06V41.87H180.41C176.57 41.87 173.72 42.62 171.86 44.12C170 45.62 169.07 48.23 169.07 51.95V74H151.43V23.51H169.07V32.42ZM221.564 23.06C227.384 23.06 232.004 25.01 235.424 28.91C238.844 32.75 240.554 37.97 240.554 44.57V74H222.914V46.91C222.914 44.03 222.164 41.78 220.664 40.16C219.164 38.48 217.154 37.64 214.634 37.64C211.994 37.64 209.924 38.48 208.424 40.16C206.924 41.78 206.174 44.03 206.174 46.91V74H188.534V23.51H206.174V30.71C207.734 28.43 209.834 26.6 212.474 25.22C215.114 23.78 218.144 23.06 221.564 23.06ZM336.453 10.55L320.883 74H299.193L290.463 35.12L281.553 74H259.863L244.473 10.55H263.553L270.933 53.93L280.923 10.55H300.273L309.993 53.57L317.373 10.55H336.453ZM349.698 18.83C346.578 18.83 344.058 17.99 342.138 16.31C340.278 14.57 339.348 12.41 339.348 9.82999C339.348 7.19 340.278 5 342.138 3.26C344.058 1.52 346.578 0.649995 349.698 0.649995C352.758 0.649995 355.218 1.52 357.078 3.26C358.998 5 359.958 7.19 359.958 9.82999C359.958 12.41 358.998 14.57 357.078 16.31C355.218 17.99 352.758 18.83 349.698 18.83ZM358.428 23.51V74H340.788V23.51H358.428ZM395.114 58.97V74H387.464C374.564 74 368.114 67.61 368.114 54.83V38.18H361.904V23.51H368.114V11.27H385.844V23.51H395.024V38.18H385.844V55.1C385.844 56.48 386.144 57.47 386.744 58.07C387.404 58.67 388.484 58.97 389.984 58.97H395.114ZM433.265 23.06C439.025 23.06 443.585 25.01 446.945 28.91C450.365 32.75 452.075 37.97 452.075 44.57V74H434.435V46.91C434.435 44.03 433.685 41.78 432.185 40.16C430.685 38.48 428.675 37.64 426.155 37.64C423.515 37.64 421.445 38.48 419.945 40.16C418.445 41.78 417.695 44.03 417.695 46.91V74H400.055V7.4H417.695V30.71C419.255 28.43 421.355 26.6 423.995 25.22C426.695 23.78 429.785 23.06 433.265 23.06Z" fill="#B2BCCB"/>
<path d="M478.674 10.82C489.354 10.82 497.574 13.61 503.334 19.19C509.154 24.77 512.064 32.54 512.064 42.5C512.064 52.46 509.154 60.2 503.334 65.72C497.574 71.24 489.354 74 478.674 74H460.944V10.82H478.674ZM478.674 70.58C488.214 70.58 495.474 68.12 500.454 63.2C505.434 58.22 507.924 51.32 507.924 42.5C507.924 33.62 505.434 26.69 500.454 21.71C495.474 16.73 488.214 14.24 478.674 14.24H464.994V70.58H478.674ZM523.233 14.24C522.273 14.24 521.463 13.94 520.803 13.34C520.143 12.68 519.813 11.81 519.813 10.73C519.813 9.71 520.143 8.87 520.803 8.21C521.463 7.55 522.273 7.22 523.233 7.22C524.193 7.22 525.003 7.55 525.663 8.21C526.323 8.87 526.653 9.71 526.653 10.73C526.653 11.81 526.323 12.68 525.663 13.34C525.003 13.94 524.193 14.24 523.233 14.24ZM525.213 25.13V74H521.163V25.13H525.213ZM540.96 38C542.34 34.04 544.83 30.8 548.43 28.28C552.09 25.76 556.5 24.5 561.66 24.5C566.22 24.5 570.27 25.52 573.81 27.56C577.41 29.6 580.2 32.51 582.18 36.29C584.22 40.07 585.24 44.48 585.24 49.52C585.24 54.56 584.22 59 582.18 62.84C580.2 66.62 577.41 69.56 573.81 71.66C570.27 73.7 566.22 74.72 561.66 74.72C556.56 74.72 552.18 73.46 548.52 70.94C544.92 68.36 542.4 65.12 540.96 61.22V97.04H536.91V25.13H540.96V38ZM581.1 49.52C581.1 45.08 580.26 41.24 578.58 38C576.9 34.76 574.53 32.3 571.47 30.62C568.47 28.88 564.99 28.01 561.03 28.01C557.25 28.01 553.83 28.91 550.77 30.71C547.71 32.45 545.31 34.97 543.57 38.27C541.83 41.51 540.96 45.26 540.96 49.52C540.96 53.84 541.83 57.65 543.57 60.95C545.31 64.19 547.71 66.71 550.77 68.51C553.83 70.25 557.25 71.12 561.03 71.12C564.99 71.12 568.47 70.25 571.47 68.51C574.53 66.77 576.9 64.28 578.58 61.04C580.26 57.8 581.1 53.96 581.1 49.52ZM638.326 46.28C638.326 48.44 638.266 50.06 638.146 51.14H595.936C596.056 55.52 597.016 59.21 598.816 62.21C600.616 65.21 602.986 67.46 605.926 68.96C608.866 70.46 612.076 71.21 615.556 71.21C620.356 71.21 624.376 70.04 627.616 67.7C630.856 65.3 632.896 62.06 633.736 57.98H637.966C637.006 62.96 634.546 67.01 630.586 70.13C626.626 73.19 621.616 74.72 615.556 74.72C610.996 74.72 606.916 73.7 603.316 71.66C599.716 69.62 596.896 66.71 594.856 62.93C592.816 59.09 591.796 54.62 591.796 49.52C591.796 44.42 592.786 39.98 594.766 36.2C596.806 32.42 599.626 29.54 603.226 27.56C606.826 25.52 610.936 24.5 615.556 24.5C620.236 24.5 624.286 25.52 627.706 27.56C631.186 29.54 633.826 32.21 635.626 35.57C637.426 38.87 638.326 42.44 638.326 46.28ZM634.276 47.81C634.456 43.49 633.676 39.83 631.936 36.83C630.256 33.83 627.946 31.61 625.006 30.17C622.066 28.67 618.886 27.92 615.466 27.92C612.046 27.92 608.866 28.67 605.926 30.17C603.046 31.61 600.676 33.83 598.816 36.83C597.016 39.83 596.056 43.49 595.936 47.81H634.276ZM669.466 24.14C675.286 24.14 680.026 25.94 683.686 29.54C687.346 33.08 689.176 38.36 689.176 45.38V74H685.216V45.65C685.216 39.83 683.746 35.39 680.806 32.33C677.866 29.21 673.876 27.65 668.836 27.65C663.556 27.65 659.326 29.33 656.146 32.69C653.026 36.05 651.466 41.03 651.466 47.63V74H647.416V25.13H651.466V35.48C652.846 31.82 655.126 29.03 658.306 27.11C661.546 25.13 665.266 24.14 669.466 24.14Z" fill="#5C95E1"/>
</svg>
